<svg width="16" height="17" viewBox="0 0 16 17" fill="none" xmlns="http://www.w3.org/2000/svg">
<path d="M0 2.1C0 1.67565 0.168571 1.26869 0.468629 0.968629C0.768687 0.668571 1.17565 0.5 1.6 0.5L4.26667 0.5V4.76667H0V2.1ZM0 5.83333V14.9C0 15.3243 0.168571 15.7313 0.468629 16.0314C0.768687 16.3314 1.17565 16.5 1.6 16.5H4.26667V5.83333H0ZM5.33333 16.5H14.4C14.8243 16.5 15.2313 16.3314 15.5314 16.0314C15.8314 15.7313 16 15.3243 16 14.9V5.83333H5.33333V16.5ZM16 4.76667V2.1C16 1.67565 15.8314 1.26869 15.5314 0.968629C15.2313 0.668571 14.8243 0.5 14.4 0.5L5.33333 0.5V4.76667H16Z" fill="white"/>
</svg>
